<svg width="145" height="41" viewBox="0 0 145 41" fill="none" xmlns="http://www.w3.org/2000/svg">
<path d="M68.8809 13.7342C68.6967 13.7342 67.2786 13.7342 66.7813 13.7342V13.7526C64.7185 13.7894 63.061 14.5995 61.8086 16.1828L61.9928 13.9551H58.0699L54.9205 30.0458H59.488L60.8509 23.0683C61.2192 21.172 61.8086 19.7728 62.619 18.8891C63.4293 18.0054 64.4791 17.5636 65.8052 17.5452C65.8604 17.5452 66.6892 17.5452 67.4996 17.5452L68.8809 13.7342ZM28.4916 10.8438C28.4916 9.86801 28.3074 4.27124 20.5353 4.27124H4.43848L6.81432 8.57928C7.56943 8.56087 19.8538 8.54246 19.8538 8.54246C21.2351 8.54246 23.5189 8.89225 23.5189 11.4145C23.5189 16.3669 19.3013 16.3853 18.4357 16.3853C18.4357 16.3853 11.5292 16.3853 10.461 16.4221L7.84569 29.696L11.8975 33.3597L14.3839 20.6197L17.9937 20.6565C24.8265 20.6565 26.7419 17.3058 27.2024 16.4405C28.3995 14.2865 28.4916 11.709 28.4916 10.8438ZM35.7849 13.5869C33.5195 13.5869 31.6409 14.1392 30.2596 15.3543C26.3736 18.7234 23.2795 30.4509 33.2801 30.414C34.0536 30.414 37.9765 30.0826 38.4185 30.0458L39.3947 26.9529L34.3299 27.0633C30.2412 27.0633 31.1621 23.4917 31.1805 23.4181L34.6061 23.4365C40.3892 23.4365 41.2548 19.736 41.2548 17.9502C41.2548 16.4958 40.868 13.5869 35.7849 13.5869ZM34.1825 20.7117L31.6225 20.6933C31.6594 20.5276 32.2487 16.864 35.3244 16.864C38.1607 16.864 37.7555 20.7117 34.1825 20.7117ZM50.0031 17.3795H54.1101L55.0126 14.0104H50.6477L51.587 9.35252L46.8537 10.181L46.0802 14.0104H43.7043L42.7835 17.3795H45.4724L44.1095 24.3202C43.9806 24.9277 43.9253 25.5169 43.9253 26.0876C43.9253 27.3947 44.3305 30.414 48.8428 30.414C49.8926 30.414 51.587 30.1011 51.9737 30.0642L52.9498 26.9713C49.2664 27.3211 48.3087 26.824 48.7875 23.7679L50.0031 17.3795ZM134.465 17.1033C135.331 17.1033 137.909 17.1401 138.591 17.1954L139.733 13.9919C139.733 13.9919 137.154 13.6606 134.428 13.6606C132.642 13.6606 128.424 13.8447 127.503 17.7661C126.675 21.3745 129.806 22.6632 130.377 22.9394C130.947 23.2156 131.537 23.4733 132.145 23.6942C134.06 24.4122 134.134 25.0382 134.023 25.6457C133.913 26.2533 133.507 26.9161 131.113 26.9161C130.248 26.9161 127.135 26.8792 126.472 26.824L125.33 30.0274C126.251 30.0458 129.861 30.3588 131.003 30.3588C137.246 30.4324 138.02 26.8976 138.222 26.0692C138.278 25.8483 138.314 25.6273 138.351 25.4064C138.756 22.516 136.362 21.2456 134.87 20.6749C134.41 20.4908 133.913 20.3251 133.765 20.2699C133.065 20.0306 131.389 19.6255 131.721 18.3368C132.052 17.0112 133.931 17.1033 134.465 17.1033ZM121.131 13.9551L119.4 22.9394C118.718 26.7135 116.545 26.824 116.029 26.824C113.561 26.824 114.353 23.9888 114.39 23.7679L116.269 13.9551H111.738L109.731 24.265C109.51 25.2039 108.699 30.414 114.151 30.414C115.219 30.414 116.784 30.3956 118.774 28.3152L118.626 30.0458H122.549L125.698 13.9551H121.131ZM94.1863 13.5869C91.6632 13.5869 90.2082 15.0229 89.582 15.7778L89.7662 13.9551H85.8433L81.3126 37.1891L86.0643 36.3606L87.243 30.1563C88.0718 30.322 88.8453 30.3956 89.582 30.3956C91.8289 30.3956 97.2252 29.4015 98.6065 22.9946C98.8828 21.7243 99.067 20.5092 99.067 19.3126C99.067 13.7526 95.052 13.5869 94.1863 13.5869ZM94.3889 20.859C94.3337 21.3377 94.1495 22.0741 94.0206 22.6817C92.8235 28.4625 88.2191 26.7688 87.9244 26.7135L88.9742 21.2456C89.2321 19.9753 89.9319 17.1033 92.4367 17.1033C95.0704 17.1033 94.4442 20.3804 94.3889 20.859ZM76.2478 13.5869C69.3229 13.5869 68.2547 19.3678 67.9784 20.3804C67.5548 21.9084 67.3338 23.3076 67.3338 24.5779C67.3338 25.4616 67.3154 30.414 73.7615 30.414C78.992 30.414 80.5575 27.229 81.0732 26.3085C81.8099 25.0198 82.4913 22.1662 82.6018 21.485C82.7123 20.7854 84.241 13.5869 76.2478 13.5869ZM78.0343 21.0247C77.9422 21.5954 77.8133 22.2582 77.6107 22.9946C77.2608 24.3754 76.7451 26.9161 74.1114 26.9161C71.0541 26.9161 71.9013 23.6022 72.0118 23.013C72.1223 22.4239 72.2513 21.7795 72.4354 21.0615C72.7669 19.6992 73.301 17.0849 75.8979 17.0849C78.9368 17.0849 78.1264 20.454 78.0343 21.0247ZM108.441 7.10644L103.727 7.97173L100.375 24.8909C99.7116 28.3337 100.78 30.414 104.205 30.414C104.721 30.414 105.679 30.2483 106.415 30.1379L107.392 26.9161C107.171 26.9345 106.489 26.9345 105.771 26.9529C104.868 26.9161 104.703 26.419 104.887 25.4064L108.441 7.10644Z" fill="#FF8200"/>
<path d="M138.406 29.2358C138.406 28.9412 138.517 28.6835 138.72 28.4809C138.922 28.2784 139.18 28.168 139.475 28.168C139.769 28.168 140.027 28.2784 140.23 28.4809C140.432 28.6835 140.543 28.9412 140.543 29.2358C140.543 29.5303 140.432 29.7881 140.23 29.9906C140.027 30.1931 139.769 30.3036 139.475 30.3036C139.18 30.3036 138.922 30.1931 138.72 29.9906C138.517 29.7881 138.406 29.5303 138.406 29.2358ZM138.664 29.2358C138.664 29.4567 138.738 29.6592 138.904 29.8065C139.07 29.9722 139.254 30.0458 139.475 30.0458C139.696 30.0458 139.898 29.9722 140.046 29.8065C140.211 29.6408 140.285 29.4567 140.285 29.2358C140.285 29.0148 140.211 28.8123 140.046 28.665C139.88 28.4994 139.696 28.4257 139.475 28.4257C139.254 28.4257 139.051 28.4994 138.904 28.665C138.738 28.8307 138.664 29.0148 138.664 29.2358ZM139.733 29.8433L139.438 29.3462H139.346V29.8433H139.106V28.6098H139.438C139.733 28.6098 139.898 28.7387 139.898 28.978C139.898 29.1253 139.825 29.2358 139.696 29.3094L140.027 29.8433H139.733ZM139.419 28.8307H139.327V29.1253C139.419 29.1253 139.493 29.1253 139.53 29.1253C139.567 29.1253 139.585 29.1069 139.604 29.0885C139.622 29.0701 139.622 29.0333 139.622 28.978C139.622 28.886 139.567 28.8307 139.419 28.8307Z" fill="#FF8200"/>
</svg>
