<svg width="162" height="39" viewBox="0 0 162 39" fill="none" xmlns="http://www.w3.org/2000/svg">
<g clip-path="url(#clip0_6099_15)">
<path d="M76.6883 11.194C76.4691 11.194 74.7922 11.194 74.1959 11.194C74.1965 11.1998 74.1965 11.2056 74.1959 11.2114C71.7394 11.2463 69.7666 12.2075 68.2774 14.095L68.4967 11.4623H63.8276L60.0792 30.5151H65.5199L67.1354 22.2483C67.5738 20.009 68.2782 18.3578 69.2485 17.2948C70.2189 16.2318 71.4822 15.7018 73.0385 15.7047H75.0552L76.6883 11.194ZM37.2996 11.0238C34.6034 11.0238 32.3763 11.6782 30.7235 13.1069C26.1093 17.0985 22.4223 30.9928 34.325 30.9557C35.2391 30.9557 39.9235 30.5544 40.4496 30.5195L41.6157 26.8441L35.5789 26.9859C30.717 26.9859 31.813 22.7478 31.8371 22.6737L35.9055 22.6911C42.7951 22.6911 43.8078 18.3004 43.8078 16.1802C43.8078 14.4723 43.3475 11.0238 37.3062 11.0238H37.2996ZM35.3882 19.452L32.3391 19.4346C32.3873 19.2405 33.08 14.8999 36.7494 14.8999C40.1361 14.8999 39.6429 19.452 35.3948 19.452H35.3882ZM54.2134 15.5259H59.1016L60.1669 11.5408H54.9871L56.0963 6.03106L50.4716 7.0017L49.5531 11.5364H46.721L45.625 15.5215H48.8232L47.2076 23.7512C47.0648 24.4372 46.9913 25.1358 46.9884 25.8364C46.9884 27.396 47.4663 30.9557 52.8324 30.9557C54.0928 30.9557 56.0963 30.5849 56.5588 30.5478L57.725 26.879C53.3519 27.2847 52.2055 26.7155 52.7644 23.0925L54.2134 15.5259ZM28.6126 7.79348C28.6126 6.6418 28.3934 0.0109253 19.143 0.0109253H0L2.81676 5.0975C3.70673 5.06697 18.3407 5.04733 18.3407 5.04733C19.976 5.04733 22.6941 5.45086 22.6941 8.45438C22.6941 14.3153 17.6853 14.3436 16.6419 14.3436C16.6419 14.3436 8.41741 14.3436 7.15699 14.3873L4.0443 30.1138L8.87773 34.45L11.8348 19.3539L16.1356 19.3888C24.2658 19.3888 26.5477 15.4233 27.0957 14.4025C28.5052 11.8396 28.6126 8.79247 28.6126 7.79348ZM154.744 15.2096C155.775 15.2096 158.843 15.2554 159.648 15.3099L161.016 11.5015C158.922 11.2458 156.815 11.111 154.705 11.098C152.572 11.098 147.55 11.3161 146.472 15.9621C145.476 20.2438 149.203 21.7576 149.891 22.0891C150.58 22.4207 151.272 22.7195 151.985 22.9834C154.256 23.8297 154.352 24.567 154.227 25.2868C154.102 26.0066 153.615 26.7874 150.77 26.7874C149.742 26.7874 146.046 26.7416 145.242 26.6871L143.874 30.478C144.97 30.4955 149.275 30.8641 150.626 30.8794C158.078 30.9579 158.979 26.7722 159.225 25.7972C159.291 25.5383 159.341 25.2752 159.372 25.0097C159.847 21.5874 157.002 20.0889 155.231 19.4084C154.676 19.1903 154.089 18.9853 153.916 18.9198C153.083 18.6275 151.097 18.1499 151.485 16.6252C151.873 15.1005 154.109 15.1921 154.744 15.1921V15.2096ZM138.867 11.4797L136.809 22.1218C135.992 26.5846 133.416 26.7307 132.802 26.7307C129.867 26.7307 130.805 23.3782 130.856 23.1099L133.096 11.4797H127.695L125.303 23.6945C125.042 24.796 124.076 30.9732 130.564 30.9732C131.838 30.9732 133.696 30.9557 136.075 28.4844L135.893 30.5347H140.56L144.31 11.4797H138.867ZM106.818 11.0435C105.766 11.0333 104.726 11.2618 103.777 11.7116C102.827 12.1614 101.993 12.8206 101.338 13.6391L101.557 11.4819H96.8879L91.4911 39L97.1377 38.0119L98.5472 30.6613C99.4667 30.8513 100.403 30.9499 101.342 30.9557C104.01 30.9557 110.432 29.7691 112.072 22.1785C112.412 20.7481 112.597 19.2857 112.624 17.8161C112.605 11.2245 107.837 11.0238 106.818 11.0238V11.0435ZM107.037 19.6549C106.965 20.2285 106.754 21.0988 106.599 21.8186C105.185 28.6371 99.7046 26.6391 99.3561 26.5671L100.606 20.0933C100.912 18.5861 101.748 15.1921 104.72 15.1921C107.852 15.1921 107.112 19.0638 107.037 19.6353V19.6549ZM123.773 3.34381L118.155 4.3777L114.172 24.4056C113.376 28.4757 114.65 30.9492 118.725 30.9492C119.608 30.8947 120.486 30.7854 121.355 30.622L122.528 26.7962C122.269 26.8136 121.463 26.8289 120.59 26.842C119.521 26.7918 119.321 26.2007 119.538 25.0097L123.773 3.34381ZM85.4564 11.0238C77.2078 11.0238 75.9496 17.875 75.6054 19.0681C75.1204 20.6836 74.8608 22.3577 74.8338 24.0435C74.8338 25.0905 74.8097 30.9557 82.4796 30.9557C88.7006 30.9557 90.5726 27.1757 91.1908 26.0916C92.0676 24.5648 92.8742 21.1839 93.0101 20.3681C93.1461 19.5524 94.9589 11.0238 85.4564 11.0238ZM87.5893 19.8359C87.4688 20.6305 87.2975 21.4166 87.0763 22.1894C86.6576 23.821 86.057 26.8332 82.9224 26.8332C79.2771 26.8332 80.292 22.9071 80.4235 22.2069C80.555 21.5067 80.7172 20.7389 80.9364 19.8839C81.3288 18.2742 81.9645 15.166 85.0531 15.166C88.6612 15.1551 87.6879 19.1554 87.5914 19.8359H87.5893Z" fill="white"/>
<path d="M159.435 29.5663C159.435 29.2699 159.537 28.9826 159.726 28.7532C159.914 28.5238 160.177 28.3666 160.469 28.3084C160.761 28.2501 161.064 28.2945 161.327 28.4338C161.59 28.5731 161.796 28.7989 161.91 29.0725C162.024 29.3462 162.04 29.6508 161.954 29.9344C161.867 30.218 161.685 30.4631 161.438 30.6279C161.19 30.7927 160.893 30.8669 160.596 30.838C160.3 30.8091 160.023 30.6788 159.812 30.4693C159.69 30.3527 159.594 30.2123 159.529 30.0569C159.464 29.9016 159.432 29.7345 159.435 29.5663ZM159.744 29.5663C159.744 29.758 159.801 29.9456 159.907 30.1052C160.014 30.2649 160.166 30.3894 160.344 30.4629C160.522 30.5365 160.718 30.5559 160.907 30.5186C161.096 30.4813 161.27 30.3889 161.406 30.2533C161.519 30.1408 161.602 30.0022 161.649 29.8499C161.695 29.6976 161.703 29.5363 161.672 29.3802C161.641 29.2241 161.572 29.078 161.47 28.9549C161.369 28.8318 161.239 28.7354 161.091 28.6743C160.943 28.6132 160.783 28.5893 160.624 28.6047C160.464 28.6201 160.311 28.6742 160.178 28.7624C160.045 28.8506 159.936 28.9701 159.86 29.1103C159.785 29.2505 159.745 29.4071 159.744 29.5663ZM161.009 30.2817L160.663 29.6949H160.544V30.2817H160.249V28.8225H160.643C161.003 28.8225 161.182 28.9679 161.182 29.2587C161.185 29.3404 161.163 29.421 161.12 29.4907C161.078 29.5604 161.015 29.6162 160.941 29.6513L161.331 30.2926L161.009 30.2817ZM160.643 29.0886H160.538V29.4441C160.614 29.4491 160.691 29.4491 160.768 29.4441C160.787 29.4428 160.806 29.437 160.822 29.4271C160.838 29.4172 160.852 29.4036 160.862 29.3874C160.885 29.3499 160.895 29.3066 160.893 29.2631C160.895 29.1453 160.812 29.0886 160.643 29.0886Z" fill="white"/>
</g>
<defs>
<clipPath id="clip0_6099_15">
<rect width="162" height="39" fill="white"/>
</clipPath>
</defs>
</svg>
